# xmcd CD database file
#
# Track frame offsets:
#	183
#	31763
#	56620
#	69325
#	79218
#	98213
#	111023
#	129780
#	153605
#	168823
#	187725
#	198958
#	211035
#	221425
#	234650
#	249693
#
# Disc length: 3496 seconds
#
# Revision: 0
# Processed by: cddbd v1.4PL0 Copyright (c) Steve Scherf et al.
# Submitted via: CDex 1.50
#
DISCID=ca0da610
DTITLE=Bud Powell - Shaw Nuff
DYEAR=1960
DGENRE=Jazz
TTITLE0=Idaho
TTITLE1=Perdido
TTITLE2=Shaw Nuff
TTITLE3=Oleop
TTITLE4=Autumn in New York
TTITLE5=John's Abbey
TTITLE6=John's Abbey
TTITLE7=Buttercup
TTITLE8=Sweet and Lovely
TTITLE9=Crossing the Channel
TTITLE10=Confirmation
TTITLE11=Get Happy
TTITLE12=John's Abbey
TTITLE13=Reverse the Charges
TTITLE14=The Man I Love
TTITLE15=September in the Rain
EXTD=YEAR: 1960
EXTT0=
EXTT1=
EXTT2=
EXTT3=
EXTT4=
EXTT5=
EXTT6=
EXTT7=
EXTT8=
EXTT9=
EXTT10=
EXTT11=
EXTT12=
EXTT13=
EXTT14=
EXTT15=
PLAYORDER=
